Coordinates
version=1
nRows=24
nColumns=26
inDegrees=yes

Units are S.I. units (second, meters, Newtons, ...)
If the header above contains a line with 'inDegrees', this indicates whether rotational values are in degrees (yes) or radians (no).

endheader
time	pelvis_tilt	pelvis_list	pelvis_rotation	pelvis_tx	pelvis_ty	pelvis_tz	hip_flexion_r	hip_adduction_r	hip_rotation_r	knee_angle_r	knee_angle_r_beta	ankle_angle_r	subtalar_angle_r	mtp_angle_r	hip_flexion_l	hip_adduction_l	hip_rotation_l	knee_angle_l	knee_angle_l_beta	ankle_angle_l	subtalar_angle_l	mtp_angle_l	lumbar_extension	lumbar_bending	lumbar_rotation
      1.99000000	      4.42695349	     -4.95839541	     -3.80891766	      1.31838044	      1.00504705	      0.24161295	    -25.52454118	      7.66736995	     13.27728255	      4.42267657	      0.07719027	      5.11157075	    -21.01461396	     -7.49999986	     18.95835946	     -4.73254783	     -0.62755268	      7.79912598	      0.13612043	      2.96504848	      2.16078950	     -7.49999986	    -14.85078280	      5.41721814	      8.66088830
      1.99500000	      4.59984948	     -4.65206476	     -3.83301749	      1.32572367	      1.00477129	      0.24102151	    -25.78536498	      7.23843092	     12.40740847	      5.07890283	      0.08864358	      5.88659207	    -19.36991643	     -7.49999986	     18.21434363	     -4.13487028	      0.92202189	      7.35620142	      0.12838994	      0.78157125	     -1.64305982	     -7.49999986	    -14.89019292	      5.02137953	      8.59753795
      2.00000000	      4.69769181	     -4.47809228	     -3.85792363	      1.33310675	      1.00433615	      0.24045908	    -26.11346391	      6.97221088	     12.14527578	      5.44086495	      0.09496101	      5.68501058	    -19.14254284	     -7.49999986	     18.12715839	     -3.92932856	      0.55827529	      8.11560372	      0.14164401	      0.29153088	     -2.11275077	     -7.49999986	    -14.84356032	      4.79284602	      8.59334520
      2.00500000	      4.80507332	     -4.22053814	     -3.91075445	      1.34058554	      1.00399073	      0.23990958	    -26.43811279	      6.60262089	     11.88941427	      5.81998993	      0.10157799	      5.43305736	    -18.89756134	     -7.49999986	     17.96597031	     -3.63868880	      0.15270368	      8.76670472	      0.15300786	     -0.41023816	     -2.71296223	     -7.49999986	    -14.78805300	      4.46138868	      8.55449552
      2.01000000	      4.93092199	     -3.86962517	     -3.92955819	      1.34806516	      1.00380102	      0.23925574	    -26.67812450	      6.14150118	     11.30682927	      6.38824421	      0.11149589	      5.58516358	    -18.02900393	     -7.49999986	     17.32011259	     -3.01658919	      1.29989282	      8.46617848	      0.14776269	     -2.75025812	     -6.00978167	     -7.49999986	    -14.74466998	      4.02771800	      8.49446274
      2.01500000	      4.99816368	     -3.56344346	     -3.92618078	      1.35557676	      1.00354110	      0.23858290	    -26.88351075	      5.75347177	     10.89831559	      6.89979068	      0.12042407	      5.42264685	    -17.62622676	     -7.49999987	     17.05239174	     -2.58224618	      1.39849496	      8.79046153	      0.15342250	     -4.07221842	     -7.36633461	     -7.49999987	    -14.63092931	      3.65335504	      8.41813743
      2.02000000	      5.03711567	     -3.25263829	     -3.89747349	      1.36308200	      1.00330008	      0.23787205	    -27.04829387	      5.38241112	     10.53992189	      7.42071956	      0.12951599	      5.09851297	    -17.42845063	     -7.49999987	     16.83633237	     -2.15312549	      1.40122304	      9.14075701	      0.15953631	     -5.29345904	     -8.43931295	     -7.49999987	    -14.48601600	      3.27831718	      8.32476346
      2.02500000	      5.04820193	     -2.91104232	     -3.83405890	      1.37059534	      1.00309434	      0.23706568	    -27.15458627	      4.99366873	     10.10826506	      7.97845181	      0.13925025	      4.71076967	    -17.16341330	     -7.49999987	     16.61946560	     -1.66606143	      1.48334770	      9.39848512	      0.16403451	     -6.60937054	     -9.64210657	     -7.49999987	    -14.30458949	      2.87800296	      8.19606185
      2.03000000	      5.06204681	     -2.55023942	     -3.77538198	      1.37810795	      1.00297495	      0.23628926	    -27.21075828	      4.58985254	      9.64698458	      8.64105303	      0.15081483	      4.42691648	    -16.92500263	     -7.49999987	     16.40670443	     -1.18152749	      1.45614318	      9.66931058	      0.16876131	     -7.69912845	    -10.43525922	     -7.49999987	    -14.12939928	      2.44862443	      8.06846619
      2.03500000	      5.04622337	     -2.17319446	     -3.66269405	      1.38558518	      1.00290420	      0.23540805	    -27.22868557	      4.20151994	      9.21505040	      9.29245757	      0.16218398	      3.88778252	    -16.88054365	     -7.49999987	     16.18923284	     -0.64293375	      1.61742195	      9.84134801	      0.17176393	     -8.87688348	    -11.44502502	     -7.49999987	    -13.92401997	      2.01300072	      7.89822797
      2.04000000	      5.01496215	     -1.77555519	     -3.51027939	      1.39303546	      1.00288835	      0.23443651	    -27.18181078	      3.81322987	      8.70543739	     10.02698924	      0.17500398	      3.35093242	    -16.79800774	     -7.49999987	     15.98247021	     -0.06389248	      1.85488572	      9.98124802	      0.17420564	    -10.00061527	    -12.45723124	     -7.49999987	    -13.70257111	      1.56222133	      7.67929196
      2.04500000	      5.05764025	     -1.29582604	     -3.47078788	      1.40060172	      1.00307528	      0.23362892	    -27.13696463	      3.26624213	      8.05980936	     10.90327356	      0.19029802	      3.00497632	    -16.30386932	     -7.49999987	     15.77858192	      0.49059599	      1.30438703	     10.31207143	      0.17997960	    -10.35891250	    -12.30126143	     -7.49999987	    -13.55090143	      0.97966698	      7.60406809
      2.05000000	      4.95258411	     -0.89818556	     -3.19241700	      1.40789434	      1.00312115	      0.23241678	    -26.96596248	      2.94707351	      7.60188081	     11.69649296	      0.20414231	      2.18647428	    -16.55141201	     -7.49999987	     15.52684436	      1.18984551	      2.32571921	     10.18672515	      0.17779189	    -11.88835377	    -14.27847646	     -7.49999987	    -13.28255638	      0.55960406	      7.25129296
      2.05500000	      4.92180016	     -0.42805615	     -3.02245070	      1.41532005	      1.00336300	      0.23137870	    -26.81251429	      2.49116026	      7.05937295	     12.59256133	      0.21978166	      1.40323665	    -16.60605945	     -7.49999987	     15.31581978	      1.84229807	      2.50641852	     10.35201916	      0.18067682	    -12.46516506	    -14.90153204	     -7.49999987	    -13.07701181	      0.02374101	      7.02347027
      2.06000000	      4.92945997	      0.03628972	     -2.87595070	      1.42278706	      1.00373043	      0.23039600	    -26.67904492	      2.03290582	      6.60981155	     13.52799053	      0.23610798	      0.52565331	    -16.71256213	     -7.49999987	     15.08532431	      2.45464520	      2.48258778	     10.59982188	      0.18500179	    -12.63496607	    -15.07277434	     -7.49999987	    -12.89872296	     -0.52730627	      6.84392697
      2.06500000	      4.92952118	      0.53612980	     -2.72985008	      1.43013433	      1.00417014	      0.22933412	    -26.46875055	      1.53185443	      6.09959173	     14.56354236	      0.25418176	     -0.43138934	    -16.82704589	     -7.49999987	     14.86078957	      3.12170970	      2.53909504	     10.83492659	      0.18910514	    -12.73660186	    -15.35401084	     -7.49999987	    -12.76690924	     -1.09952505	      6.64965680
      2.07000000	      4.93904409	      1.05218135	     -2.53612666	      1.43755824	      1.00464564	      0.22822792	    -26.17985349	      1.02194286	      5.37084133	     15.76572183	      0.27516375	     -1.45735397	    -17.00984814	     -7.49999987	     14.59383241	      3.82786082	      2.64111295	     11.02565694	      0.19243402	    -12.83307668	    -15.78583881	     -7.49999987	    -12.61121448	     -1.70685053	      6.49180021
      2.07500000	      4.89818962	      1.55557592	     -2.35671548	      1.44474918	      1.00513954	      0.22701603	    -25.78334849	      0.48179039	      4.75588495	     17.05794108	      0.29771724	     -2.03794124	    -16.45371824	     -7.49999987	     14.19849017	      4.64833546	      3.78665196	     10.88884071	      0.19004612	    -14.02076020	    -17.83753593	     -7.49999987	    -12.46075274	     -2.23832746	      6.15491610
      2.08000000	      4.96997805	      2.08401841	     -2.25912333	      1.45210654	      1.00583165	      0.22603846	    -25.54224800	     -0.07699871	      4.36191160	     18.24361780	      0.31841120	     -3.24238192	    -16.68356726	     -7.49999987	     13.84050743	      5.34918732	      3.93511094	     11.11322776	      0.19396241	    -13.82777806	    -18.12890929	     -7.49999987	    -12.40272581	     -2.87304057	      6.04072123
      2.08500000	      5.04699472	      2.58087741	     -2.18489292	      1.45941245	      1.00656965	      0.22507936	    -25.23936336	     -0.62421766	      4.00122660	     19.53210074	      0.34089947	     -4.48295915	    -16.86805173	     -7.49999987	     13.46161726	      6.02080163	      4.14110427	     11.33178134	      0.19777689	    -13.59240852	    -18.50220503	     -7.49999987	    -12.36288427	     -3.44536788	      5.89992070
      2.09000000	      5.12892355	      3.06208293	     -2.10963800	      1.46665093	      1.00732605	      0.22412405	    -24.89593907	     -1.15131846	      3.69470844	     20.87654774	      0.36436449	     -5.73431704	    -17.02908591	     -7.49999987	     13.06102624	      6.67798054	      4.39802239	     11.53550690	      0.20133258	    -13.35740167	    -18.90810647	     -7.49999987	    -12.34823896	     -4.01137793	      5.76846240
      2.09500000	      5.20990731	      3.54391574	     -2.04637098	      1.47384722	      1.00808690	      0.22316824	    -24.49008634	     -1.69377641	      3.38217235	     22.30667790	      0.38932497	     -7.02003242	    -17.22621414	     -7.49999987	     12.64083562	      7.34196503	      4.71621073	     11.71585124	      0.20448018	    -13.16595525	    -19.35712122	     -7.49999987	    -12.33413670	     -4.57369867	      5.66996555
      2.10000000	      5.20495761	      4.02448583	     -1.92048224	      1.48088744	      1.00874974	      0.22205985	    -23.94133519	     -2.20545597	      3.09661815	     23.80728434	      0.41551550	     -8.40222754	    -17.58657207	     -7.49999987	     12.11876055	      8.12671677	      5.90556263	     11.51092587	      0.20090356	    -14.24181494	    -21.51286827	     -7.49999987	    -12.24949023	     -5.11630316	      5.49236631
      2.10500000	      5.34377589	      4.47701523	     -1.92688361	      1.48798169	      1.00960442	      0.22122159	    -23.50885603	     -2.74931675	      2.92423327	     25.32253271	      0.44196157	     -9.70260183	    -17.73450155	     -7.49999987	     11.59549682	      8.73178185	      6.14092274	     11.63566153	      0.20308060	    -13.88134785	    -21.77075662	     -7.49999987	    -12.31930806	     -5.65556631	      5.47228294
